<?xml version="1.0" encoding="UTF-8"?>
<svg width="25px" height="24px" viewBox="0 0 25 24" version="1.1" xmlns="http://www.w3.org/2000/svg" xmlns:xlink="http://www.w3.org/1999/xlink">
    <!-- Generator: Sketch 63.1 (92452) - https://sketch.com -->
    <title>bird</title>
    <desc>Created with Sketch.</desc>
    <g id="lucid" stroke="none" stroke-width="1" fill="none" fill-rule="evenodd">
        <g id="bird" fill="#FFFFFF" fill-rule="nonzero">
            <path d="M16.78125,0.0039062 C13.53025,0.1189063 11,2.8905312 11,6.1445312 L11,8 C11,9.828 9.991937,10.752266 8.710938,11.197266 C7.323937,11.680266 5.7436094,12.151187 5.4746094,12.242188 C4.7236094,12.494188 4.8609688,13.113859 5.0429688,13.380859 C6.1239687,14.961859 7.94,16 10,16 C11.014,16 11.859453,15.815578 12.564453,15.517578 C13.336453,15.191578 13.914187,16.244141 13.242188,16.744141 C12.237188,17.489141 10.868,18 9,18 C6.622,18 4.5238125,16.812 3.2578125,15 L1.2714844,15 C0.5954844,15 0.1618437,15.546938 0.5898438,16.335938 C1.5578388,18.115997 3.8840054,21.123284 8.769531,21.841797 C8.411786,22.14062 8.189453,22.414063 8.189453,22.414062 C7.98002655,22.7036391 7.94102222,23.0829561 8.0871362,23.4090926 C8.23325018,23.7352292 8.54227773,23.9586227 8.8977824,23.9951023 C9.25328708,24.0315819 9.60124332,23.8756038 9.810547,23.585938 C9.810547,23.585937 10.246466,23 11,23 C11.376767,23 12.056925,23.195127 12.587891,23.419922 C13.118857,23.644717 13.498047,23.865234 13.498047,23.865234 C13.8071653,24.0445646 14.1884742,24.0453601 14.4983381,23.8673211 C14.8082021,23.689282 14.9995455,23.3594567 15.0002912,23.0020871 C15.0010368,22.6447174 14.8110714,22.3140965 14.501953,22.134766 C14.501953,22.134766 14.136469,21.93781 13.662109,21.71875 C21.182971,20.047054 22.755449,11.372336 22.953125,7.039062 L24.648438,6.40625 C25.079437,6.24625 25.125609,5.6546875 24.724609,5.4296875 L22.757812,4.3300781 C22.014298,1.7643166 19.609843,-0.0963456 16.78125,0.0039062 Z M20,4 C20.6,4 21,4.4 21,5 C21,5.6 20.6,6 20,6 C19.4,6 19,5.6 19,5 C19,4.4 19.4,4 20,4 Z" id="Shape"></path>
        </g>
    </g>
</svg>