<?xml version="1.0" encoding="UTF-8"?>
<svg width="28px" height="22px" viewBox="0 0 28 22" version="1.1" xmlns="http://www.w3.org/2000/svg" xmlns:xlink="http://www.w3.org/1999/xlink">
    <!-- Generator: Sketch 63.1 (92452) - https://sketch.com -->
    <title>birds</title>
    <desc>Created with Sketch.</desc>
    <g id="lucid" stroke="none" stroke-width="1" fill="none" fill-rule="evenodd">
        <g id="birds" fill="#FFFFFF" fill-rule="nonzero">
            <path d="M1.5,0 C0.672,0 0,0.672 0,1.5 C0,3.054 0.8622656,5.237375 1.5722656,7.234375 C2.3452656,9.408375 2.974,12 5,12 L10,12 C6.552,12.677 3,12.990906 3,17.253906 C3,20.051906 4.611625,22 9.015625,22 C10.609625,22 11.264156,20.557547 12.285156,18.810547 C13.243156,17.172547 14,15.748 14,14 C14,15.748 14.756844,17.172547 15.714844,18.810547 C16.735844,20.557547 17.390375,22 18.984375,22 C23.388375,22 25,20.051906 25,17.253906 C25,12.990906 21.448,12.677 18,12 L23,12 C25.026,12 25.654734,9.408375 26.427734,7.234375 C27.137734,5.237375 28,3.054 28,1.5 C28,0.672 27.328,0 26.5,0 C24,0 14,6.902 14,11 C14,6.902 4,0 1.5,0 Z" id="Path"></path>
        </g>
    </g>
</svg>