<?xml version="1.0" encoding="UTF-8"?>
<svg width="24px" height="24px" viewBox="0 0 24 24" version="1.1" xmlns="http://www.w3.org/2000/svg" xmlns:xlink="http://www.w3.org/1999/xlink">
    <!-- Generator: Sketch 63.1 (92452) - https://sketch.com -->
    <title>jungle</title>
    <desc>Created with Sketch.</desc>
    <g id="lucid" stroke="none" stroke-width="1" fill="none" fill-rule="evenodd">
        <g id="jungle" fill="#FFFFFF" fill-rule="nonzero">
            <path d="M12,0 C10,0 11,1 8,1 C6.245,1 5.261875,1.7707656 5.046875,2.6347656 C4.281875,2.5017656 3.51,2.49 3,3 C2,4 1,4 1,5 C1,6 2,7 4,7 C6,7 4,6 6,6 C8,6 9,6 9,5 C9,4.887 8.983984,4.7731094 8.958984,4.6621094 C9.303984,4.8061094 9.648187,4.9199219 9.992188,4.9199219 C10.985188,4.9199219 11,4 12,4 C13,4 13,5 13,6 C13,7 16.000062,6.9785156 18.039062,6.9785156 C20.079062,6.9785156 22,6 22,5 C22,4 20,4 19,4 C18,4 17,3 17,2 C17,1 16,1 15,1 C14,1 13,0 12,0 Z M11.091797,6.7363281 C10.875797,6.8133281 10.632328,6.8713906 10.361328,6.9003906 C10.328328,6.9373906 10.285,6.9620938 10.25,6.9960938 C10.267,7.719094 10.210047,8.307359 9.998047,8.443359 C9.791047,8.576359 9.299469,8.262297 8.730469,7.779297 C8.536469,7.826297 8.338719,7.867484 8.136719,7.896484 C8.656719,8.513484 8.883891,9.372422 8.962891,10.232422 C9.573891,10.912422 10,11.550813 10,12.007812 C10,13.733812 10.013672,14.802734 10.013672,14.802734 L8.115234,13.363281 C7.588234,13.786281 6.8788125,13.929562 6.1328125,13.976562 C7.857813,15.702563 10,18.206 10,20 L10,24 L14,24 L14,20 C14,19.282 14.517688,18.305609 15.179688,17.349609 C13.603687,16.746609 12,15.685 12,14 C12,12.627 12.838734,11.258203 14.427734,10.533203 C14.687734,10.059203 15.050406,9.500781 15.441406,8.925781 C14.854406,8.887781 14.276234,8.822984 13.740234,8.708984 C13.217234,9.384984 12.738563,9.809828 12.476562,9.548828 C12.250562,9.322828 12.032938,8.675953 11.835938,7.876953 C11.484937,7.581953 11.220797,7.212328 11.091797,6.7363281 Z M3.4414062,8.560547 C2.890625,8.53125 2.375,8.625 2,9 C1,10 0,10 0,11 C0,12 1,13 3,13 C5,13 3,12 5,12 C7,12 7,12 7,11 C7,10 7,9 6,9 C5.375,9 4.359375,8.609375 3.4414062,8.560547 Z M22,11 C19,11 19,12 17,12 C15,12 14,13 14,14 C14,15 17,16 18,16 C19,16 21,15 22,14 C23,13 24,14 24,13 C24,12 24,11 22,11 Z" id="Shape"></path>
        </g>
    </g>
</svg>