<?xml version="1.0" encoding="UTF-8"?>
<svg width="26px" height="23px" viewBox="0 0 26 23" version="1.1" xmlns="http://www.w3.org/2000/svg" xmlns:xlink="http://www.w3.org/1999/xlink">
    <!-- Generator: Sketch 63.1 (92452) - https://sketch.com -->
    <title>rain</title>
    <desc>Created with Sketch.</desc>
    <g id="lucid" stroke="none" stroke-width="1" fill="none" fill-rule="evenodd">
        <g id="rain" fill="#FFFFFF" fill-rule="nonzero">
            <path d="M15.5,0 C13.1907611,0.0024902526 11.0562173,1.22998303 9.892578,3.2246094 C9.44307891,3.07699957 8.97311379,3.00119873 8.5,3 C6.19728486,3.00146516 4.26720954,4.74106145 4.0273438,7.03125 C1.74018674,7.27281477 0.0032499725,9.20012383 4.4408921e-16,11.5 C4.4408921e-16,12.6934742 0.474105782,13.8380668 1.31801948,14.6819805 C2.16193319,15.5258942 3.3065258,16 4.5,16 L21.5,16 C23.9852814,16 26,13.9852814 26,11.5 C25.9987457,9.1986297 24.2612968,7.26906736 21.972656,7.027344 C21.98891,6.85200562 21.9980322,6.67607915 22,6.5 C22,2.91014913 19.0898509,0 15.5,0 Z M3.984375,17.986328 C3.4328588,17.9949491 2.99244728,18.4484681 3,19 L3,20 C2.99489971,20.3606359 3.1843753,20.6960814 3.49587285,20.8778877 C3.8073704,21.0596941 4.1926296,21.0596941 4.50412715,20.8778877 C4.8156247,20.6960814 5.00510029,20.3606359 5,20 L5,19 C5.00370146,18.7296997 4.89782332,18.4694133 4.70649033,18.2784483 C4.51515734,18.0874832 4.25466771,17.9821063 3.984375,17.986328 L3.984375,17.986328 Z M15.984375,17.986328 C15.4328588,17.9949491 14.9924473,18.4484681 15,19 L15,20 C14.9948997,20.3606359 15.1843753,20.6960814 15.4958728,20.8778877 C15.8073704,21.0596941 16.1926296,21.0596941 16.5041272,20.8778877 C16.8156247,20.6960814 17.0051003,20.3606359 17,20 L17,19 C17.0037015,18.7296997 16.8978233,18.4694133 16.7064903,18.2784483 C16.5151573,18.0874832 16.2546677,17.9821063 15.984375,17.986328 L15.984375,17.986328 Z M9.984375,19.986328 C9.4328588,19.9949491 8.99244728,20.4484681 9,21 L9,22 C8.99489971,22.3606359 9.1843753,22.6960814 9.49587285,22.8778877 C9.8073704,23.0596941 10.1926296,23.0596941 10.5041272,22.8778877 C10.8156247,22.6960814 11.0051003,22.3606359 11,22 L11,21 C11.0037015,20.7296997 10.8978233,20.4694133 10.7064903,20.2784483 C10.5151573,20.0874832 10.2546677,19.9821063 9.984375,19.986328 Z M21.984375,19.986328 C21.4328588,19.9949491 20.9924473,20.4484681 21,21 L21,22 C20.9948997,22.3606359 21.1843753,22.6960814 21.4958728,22.8778877 C21.8073704,23.0596941 22.1926296,23.0596941 22.5041272,22.8778877 C22.8156247,22.6960814 23.0051003,22.3606359 23,22 L23,21 C23.0037015,20.7296997 22.8978233,20.4694133 22.7064903,20.2784483 C22.5151573,20.0874832 22.2546677,19.9821063 21.984375,19.986328 Z" id="Shape"></path>
        </g>
    </g>
</svg>