<?xml version="1.0" encoding="UTF-8"?>
<svg width="24px" height="26px" viewBox="0 0 24 26" version="1.1" xmlns="http://www.w3.org/2000/svg" xmlns:xlink="http://www.w3.org/1999/xlink">
    <!-- Generator: Sketch 63.1 (92452) - https://sketch.com -->
    <title>snow</title>
    <desc>Created with Sketch.</desc>
    <g id="lucid" stroke="none" stroke-width="1" fill="none" fill-rule="evenodd">
        <g id="snow" transform="translate(0.000000, -1.000000)" fill="#FFFFFF" fill-rule="nonzero">
            <path d="M11.984375,0.986205963 C11.4328588,0.994949173 10.9924473,1.44846818 11,2 L11,4.5859375 L9.707031,3.2929688 C9.51875988,3.09943601 9.26023577,2.99025009 8.990234,2.9902344 C8.58331102,2.99034151 8.2170253,3.23699017 8.06390346,3.61400478 C7.91078161,3.9910194 8.00135774,4.4232193 8.292969,4.7070312 L11,7.4140625 L11,9.099609 C9.918852,9.319096 8.978714,9.900645 8.273438,10.695312 L6.796875,9.841797 L5.8066406,6.1425781 C5.69612605,5.70699518 5.30864903,5.39861142 4.859375,5.3886719 C4.54235165,5.38173844 4.24082438,5.52556055 4.04670476,5.77629837 C3.85258515,6.02703619 3.78887706,6.35497639 3.875,6.6601562 L4.3476562,8.4277344 L2.1074219,7.1347656 C1.96368538,7.0481756 1.80047173,6.99914435 1.6328125,6.9921875 C1.59959754,6.99118328 1.56635317,6.99183512 1.5332031,6.9941406 C1.09040795,7.02176093 0.718735768,7.33779672 0.620295202,7.7703934 C0.521854636,8.20299008 0.720178521,8.64873268 1.1074219,8.8652344 L3.3476562,10.158203 L1.5820312,10.632812 C1.23034547,10.7193711 0.952940114,10.9893064 0.856815433,11.3384988 C0.760690752,11.6876913 0.860869744,12.0615669 1.11871154,12.3159149 C1.37655334,12.570263 1.75176074,12.6653323 2.0996094,12.564453 L5.796875,11.572266 L7.277344,12.427734 C7.111513,12.92504 7,13.447022 7,14 C7,14.552978 7.111513,15.07496 7.277344,15.572266 L5.796875,16.427734 L2.0996094,15.435547 C2.00307155,15.4083616 1.90299364,15.395852 1.8027344,15.398438 C1.30387283,15.4117776 0.891188855,15.7908307 0.835593129,16.2867641 C0.779997403,16.7826975 1.09850623,17.2437197 1.5820312,17.367188 L3.3476562,17.841797 L1.1074219,19.134766 C0.782851137,19.3055453 0.57779535,19.6402823 0.573013169,20.0070106 C0.568395975,20.3737389 0.7648064,20.7136209 1.08489416,20.8926616 C1.40498192,21.0717022 1.79739243,21.0611765 2.1074219,20.865234 L4.3476562,19.572266 L3.875,21.339844 C3.77411626,21.687694 3.86918371,22.0629051 4.12353265,22.3207496 C4.37788159,22.5785941 4.75176013,22.6787739 5.1009547,22.5826472 C5.45014927,22.4865206 5.72008467,22.2091111 5.8066406,21.857422 L6.796875,18.158203 L8.273438,17.304688 C8.978714,18.099355 9.918852,18.680904 11,18.900391 L11,20.585938 L8.292969,23.292969 C8.03172821,23.5437856 7.92649336,23.916236 8.01785019,24.2666781 C8.10920701,24.6171201 8.38287989,24.890793 8.73332195,24.9821498 C9.08376401,25.0735066 9.45621443,24.9682718 9.707031,24.707031 L11,23.414062 L11,26 C10.9948997,26.3606359 11.1843753,26.6960814 11.4958728,26.8778877 C11.8073704,27.0596941 12.1926296,27.0596941 12.5041272,26.8778877 C12.8156247,26.6960814 13.0051003,26.3606359 13,26 L13,23.414062 L14.292969,24.707031 C14.5437856,24.9682718 14.916236,25.0735066 15.2666781,24.9821498 C15.6171201,24.890793 15.890793,24.6171201 15.9821498,24.2666781 C16.0735066,23.916236 15.9682718,23.5437856 15.707031,23.292969 L13,20.585938 L13,18.900391 C14.081148,18.680904 15.021286,18.099355 15.726562,17.304688 L17.203125,18.158203 L18.193359,21.857422 C18.2799177,22.2091081 18.5498529,22.486514 18.8990456,22.582639 C19.2482383,22.6787639 19.6221143,22.5785848 19.8764625,22.3207427 C20.1308106,22.0629007 20.2258798,21.6876928 20.125,21.339844 L19.652344,19.572266 L21.892578,20.865234 C22.2026075,21.0611765 22.595018,21.0717022 22.9151057,20.8926616 C23.2351935,20.7136209 23.4316039,20.3737389 23.4269867,20.0070106 C23.4222045,19.6402823 23.2171488,19.3055453 22.892578,19.134766 L20.652344,17.841797 L22.417969,17.367188 C22.9061934,17.2417719 23.2247726,16.7726122 23.161273,16.2725522 C23.0977733,15.7724921 22.6720443,15.3978478 22.167969,15.398438 C22.0775085,15.3986493 21.9874949,15.4111328 21.900391,15.435547 L18.203125,16.427734 L16.722656,15.572266 C16.888487,15.07496 17,14.552978 17,14 C17,13.447022 16.888487,12.92504 16.722656,12.427734 L18.203125,11.572266 L21.900391,12.564453 C22.2482398,12.6653328 22.6234477,12.5702636 22.8812897,12.3159155 C23.1391318,12.0615673 23.2393109,11.6876913 23.143186,11.3384986 C23.047061,10.9893059 22.7696551,10.7193707 22.417969,10.632812 L20.652344,10.158203 L22.892578,8.8652344 C23.2834089,8.64527806 23.4800278,8.1920403 23.3736125,7.75637372 C23.2671971,7.32070715 22.8837705,7.00915057 22.435547,6.9941406 C22.2448489,6.98826505 22.0564491,7.03705922 21.892578,7.1347656 L19.652344,8.4277344 L20.125,6.6601562 C20.2081054,6.36674512 20.1527998,6.05144911 19.9747945,5.80383913 C19.7967893,5.55622914 19.5155372,5.40336454 19.210938,5.3886719 C19.1777553,5.38701735 19.1445107,5.38701735 19.111328,5.3886719 C18.6730725,5.41135486 18.3008018,5.71709194 18.193359,6.1425781 L17.203125,9.841797 L15.726562,10.695312 C15.021286,9.900645 14.081148,9.319096 13,9.099609 L13,7.4140625 L15.707031,4.7070312 C16.0042731,4.42120196 16.0956028,3.9822347 15.9370285,3.60157024 C15.7784543,3.22090578 15.4024919,2.97659941 14.990234,2.9863281 C14.7264629,2.99256433 14.4758426,3.10278124 14.292969,3.2929688 L13,4.5859375 L13,2 C13.0037014,1.72969968 12.8978233,1.46941339 12.7064903,1.27844834 C12.5151573,1.0874833 12.2546677,0.982106372 11.984375,0.986205963 Z M11.910156,11.009766 C11.9705777,11.0152757 12.0313753,11.0152757 12.091797,11.009766 C13.079181,11.040122 13.946354,11.541038 14.470703,12.302734 C14.5127707,12.4438087 14.5854642,12.5738566 14.683594,12.683594 C14.879723,13.08246 15,13.525457 15,14 C15,14.537343 14.846983,15.034493 14.599609,15.470703 C14.58331,15.4979687 14.5683194,15.5259955 14.554688,15.554688 C14.042945,16.393782 13.137044,16.958717 12.089844,16.990234 C12.0547809,16.9870766 12.0195756,16.9857728 11.984375,16.986328 C11.9589439,16.986661 11.9335348,16.9879639 11.908203,16.990234 C10.294672,16.940627 9,15.625577 9,14 C9,13.527963 9.118311,13.086736 9.3125,12.689453 C9.41208486,12.5782007 9.48549533,12.4460619 9.527344,12.302734 C10.051968,11.539959 10.92151,11.039521 11.910156,11.009766 Z M12,13 C11.448,13 11,13.448 11,14 C11,14.552 11.448,15 12,15 C12.552,15 13,14.552 13,14 C13,13.448 12.552,13 12,13 Z" id="Shape"></path>
        </g>
    </g>
</svg>