<?xml version="1.0" encoding="UTF-8"?>
<svg width="27px" height="28px" viewBox="0 0 27 28" version="1.1" xmlns="http://www.w3.org/2000/svg" xmlns:xlink="http://www.w3.org/1999/xlink">
    <!-- Generator: Sketch 63.1 (92452) - https://sketch.com -->
    <title>icons8-haze</title>
    <desc>Created with Sketch.</desc>
    <g id="lucid" stroke="none" stroke-width="1" fill="none" fill-rule="evenodd">
        <g id="icons8-haze" transform="translate(-1.000000, -1.000000)" fill="#FFFFFF" fill-rule="nonzero">
            <path d="M13.984375,0.98632812 C13.4328589,0.994949193 12.9924473,1.44846818 13,2 L13,5 C12.9948997,5.36063592 13.1843753,5.69608136 13.4958728,5.87788772 C13.8073704,6.05969408 14.1926296,6.05969408 14.5041272,5.87788772 C14.8156247,5.69608136 15.0051003,5.36063592 15,5 L15,2 C15.0037014,1.72969969 14.8978233,1.4694134 14.7064903,1.27844836 C14.5151573,1.08748332 14.2546677,0.982106392 13.984375,0.98632812 Z M4.796875,4.79882631 C4.39030757,4.79972781 4.02474772,5.04666587 3.87212727,5.42350122 C3.71950681,5.80033657 3.81020431,6.23206145 4.1015625,6.515625 L6.2226562,8.6367188 C6.47347477,8.89795077 6.84592093,9.00317882 7.19635753,8.91182081 C7.54679414,8.82046281 7.82046281,8.54679414 7.91182081,8.19635753 C8.00317882,7.84592093 7.89795077,7.47347477 7.6367188,7.2226562 L5.515625,5.1015625 C5.32688158,4.90754324 5.06755431,4.79831571 4.796875,4.79882631 Z M23.171875,4.7988281 C22.9120764,4.80656924 22.6654966,4.91514841 22.484375,5.1015625 L20.363281,7.2226562 C20.102052,7.47347548 19.9968263,7.84592022 20.0881847,8.196355 C20.1795432,8.54678978 20.4532105,8.820457 20.8036453,8.91181535 C21.1540801,9.0031737 21.5265248,8.89794787 21.777344,8.6367188 L23.898438,6.515625 C24.1941986,6.22813353 24.283127,5.78855868 24.1223725,5.40871174 C23.9616181,5.02886481 23.5841587,4.78666922 23.171875,4.7988281 Z M13.746094,8.0039062 C10.335715,8.1260227 7.5547785,10.691035 7.0800781,14 L2,14 C1.63936408,13.9948997 1.30391864,14.1843753 1.12211228,14.4958728 C0.940305922,14.8073704 0.940305922,15.1926296 1.12211228,15.5041272 C1.30391864,15.8156247 1.63936408,16.0051003 2,16 L7.0800781,16 L15,16 C15.553,16 16,16.447 16,17 C16,17.553 15.553,18 15,18 L7.6835938,18 L7,18 C6.63936408,17.9948997 6.30391864,18.1843753 6.12211228,18.4958728 C5.94030592,18.8073704 5.94030592,19.1926296 6.12211228,19.5041272 C6.30391864,19.8156247 6.63936408,20.0051003 7,20.0001004 L9.105469,20.0001004 L17.974609,20.0001004 L18,20.0001004 C18.0875835,20.0010035 18.1749194,19.9904969 18.259766,19.96875 C18.764944,19.89741 19.235857,19.650579 19.550781,19.242188 C20.706781,17.741187 21.273094,15.765531 20.871094,13.644531 C20.349094,10.891531 18.142625,8.6637656 15.390625,8.1347656 C14.831125,8.0271406 14.281512,7.9847344 13.746094,8.0039062 Z M24,14 C23.6393641,13.9948997 23.3039186,14.1843753 23.1221123,14.4958728 C22.9403059,14.8073704 22.9403059,15.1926296 23.1221123,15.5041272 C23.3039186,15.8156247 23.6393641,16.0051003 24,16 L27,16 C27.3606359,16.0051003 27.6960814,15.8156247 27.8778877,15.5041272 C28.0596941,15.1926296 28.0596941,14.8073704 27.8778877,14.4958728 C27.6960814,14.1843753 27.3606359,13.9948997 27,14 L24,14 Z M21.060547,21.060547 C20.6536238,21.0606536 20.2873375,21.3073022 20.1342154,21.684317 C19.9810933,22.0613318 20.0716695,22.493532 20.363281,22.777344 L22.484375,24.898438 C22.7351949,25.1596641 23.1076382,25.2648876 23.4580712,25.1735288 C23.8085042,25.08217 24.08217,24.8085042 24.1735288,24.4580712 C24.2648876,24.1076382 24.1596641,23.7351949 23.898438,23.484375 L21.777344,21.363281 C21.5890728,21.1697484 21.3305487,21.060547 21.060547,21.060547 L21.060547,21.060547 Z M4,22 C3.63936408,21.9948997 3.30391864,22.1843753 3.12211228,22.4958728 C2.94030592,22.8073704 2.94030592,23.1926296 3.12211228,23.5041272 C3.30391864,23.8156247 3.63936408,24.0051003 4,24 L15,24 C15.3606359,24.0051003 15.6960814,23.8156247 15.8778877,23.5041272 C16.0596941,23.1926296 16.0596941,22.8073704 15.8778877,22.4958728 C15.6960814,22.1843753 15.3606359,21.9948997 15,22 L4,22 Z M13.984375,25.9863153 C13.9359304,25.987378 13.8876262,25.9919473 13.839844,26 L13,26 L13,28 C12.9948997,28.3606359 13.1843753,28.6960814 13.4958728,28.8778877 C13.8073704,29.0596941 14.1926296,29.0596941 14.5041272,28.8778877 C14.8156247,28.6960814 15.0051003,28.3606359 15,28 L15,27 L15,26 L14.154297,26 C14.0981487,25.9906149 14.0413016,25.9860409 13.984375,25.9863153 L13.984375,25.9863153 Z" id="Shape"></path>
        </g>
    </g>
</svg>