<?xml version="1.0" encoding="UTF-8"?>
<svg width="26px" height="25px" viewBox="0 0 26 25" version="1.1" xmlns="http://www.w3.org/2000/svg" xmlns:xlink="http://www.w3.org/1999/xlink">
    <!-- Generator: Sketch 63.1 (92452) - https://sketch.com -->
    <title>special</title>
    <desc>Created with Sketch.</desc>
    <g id="lucid" stroke="none" stroke-width="1" fill="none" fill-rule="evenodd">
        <g id="special" fill="#FFFFFF" fill-rule="nonzero">
            <path d="M13,0 C10.046383,0 7.6872809,2.1985519 7.1992188,5.0175781 C4.3679371,4.6116059 1.5490535,6.173757 0.6367188,8.982422 C-0.2755922,11.791013 1.0857425,14.713413 3.6152344,16.048828 C2.353381,18.616329 2.9697818,21.78154 5.359375,23.517578 C7.7483331,25.253155 10.948048,24.86144 13,22.869141 C15.051952,24.86144 18.251667,25.253155 20.640625,23.517578 C23.030218,21.78154 23.646619,18.616329 22.384766,16.048828 C24.915359,14.713631 26.275669,11.79125 25.363281,8.982422 C24.450847,6.1734501 21.632652,4.610291 18.800781,5.0175781 C18.312719,2.1985519 15.953617,0 13,0 Z M13,2 C15.220375,2 17,3.7796254 17,6 C17,5.907636 16.990234,5.952449 16.990234,6.1328125 C16.9907899,6.4591086 17.1504891,6.76461682 17.4180937,6.95131771 C17.6856984,7.13801861 18.0275557,7.18243358 18.333984,7.0703125 C18.465645,7.0221445 18.496111,7.00911 18.429688,7.03125 C20.539096,6.3499355 22.777748,7.4923193 23.462891,9.601562 C24.148933,11.713576 23.005499,13.954549 20.892578,14.640625 C20.946208,14.622965 20.926868,14.625529 20.798828,14.662109 C20.4837133,14.7526515 20.2329901,14.9918971 20.1277919,15.3024266 C20.0225937,15.612956 20.0762822,15.9553274 20.271484,16.21875 C20.364274,16.343658 20.384313,16.362656 20.349609,16.314453 C21.653662,18.111119 21.261029,20.59351 19.464844,21.898438 C17.668061,23.203799 15.184197,22.810357 13.878906,21.013672 C13.916066,21.064222 13.907956,21.043312 13.822266,20.919922 C13.633508,20.6477159 13.3222148,20.4866325 12.9909808,20.4897611 C12.6597468,20.4928896 12.3515517,20.6598241 12.167969,20.935547 C12.084709,21.060441 12.071046,21.083749 12.128906,21.005859 C12.1262876,21.0084489 12.1236836,21.0110533 12.121094,21.013672 C10.815821,22.810374 8.331939,23.203798 6.5351562,21.898438 C4.7384713,20.593146 4.3450287,18.109283 5.6503906,16.3125 C5.65435865,16.3066821 5.65826513,16.3008224 5.6621094,16.294922 C5.6004064,16.383772 5.619854,16.362575 5.71875,16.234375 C5.92115477,15.971801 5.98028305,15.6259885 5.87661808,15.3110816 C5.7729531,14.9961747 5.51996988,14.753107 5.2011719,14.662109 C5.0523359,14.619589 5.0242729,14.612908 5.1132812,14.642578 C5.11133011,14.641921 5.10937701,14.64127 5.1074219,14.640625 C2.9956028,13.954691 1.8530205,11.713575 2.5390625,9.601562 C3.2244156,7.4916718 5.4619467,6.3511234 7.5722656,7.0332031 C7.5307846,7.0197311 7.5493566,7.0276335 7.6660156,7.0703125 C7.97636274,7.18395628 8.32281428,7.13693775 8.59164758,6.94469074 C8.86048088,6.75244373 9.01697696,6.43979633 9.009766,6.109375 C9.006013,5.9442567 9,5.9076364 9,6 C9,3.7796254 10.779625,2 13,2 Z M13,8.015625 C12.077,8.015625 11.328125,8.762547 11.328125,9.685547 C11.328125,10.029091 11.580432,10.543955 11.871094,11.056641 C11.473535,10.621961 11.061024,10.223218 10.734375,10.117188 C9.856375,9.832187 8.913906,10.313406 8.628906,11.191406 C8.343906,12.069406 8.823172,13.011875 9.701172,13.296875 C10.026901,13.402607 10.592551,13.322365 11.167969,13.205078 C10.633258,13.448475 10.13086,13.716879 9.929688,13.994141 C9.386688,14.741141 9.551828,15.785125 10.298828,16.328125 C11.045828,16.871125 12.090812,16.705984 12.632812,15.958984 C12.834948,15.680909 12.933917,15.11701 13,14.53125 C13.066109,15.117052 13.165411,15.682844 13.367188,15.960938 C13.909187,16.706937 14.955172,16.870125 15.701172,16.328125 C16.448172,15.785125 16.612313,14.740141 16.070312,13.994141 C15.868308,13.716245 15.36424,13.44886 14.828125,13.205078 C15.40488,13.322877 15.972381,13.40284 16.298828,13.296875 C17.176828,13.010875 17.656094,12.069406 17.371094,11.191406 C17.086094,10.313406 16.143625,9.832188 15.265625,10.117188 C14.938976,10.223218 14.526465,10.621961 14.128906,11.056641 C14.419568,10.543955 14.671875,10.029091 14.671875,9.685547 C14.671875,8.762547 13.923,8.015625 13,8.015625 Z" id="Shape"></path>
        </g>
    </g>
</svg>