<?xml version="1.0" encoding="UTF-8"?>
<svg width="14px" height="26px" viewBox="0 0 14 26" version="1.1" xmlns="http://www.w3.org/2000/svg" xmlns:xlink="http://www.w3.org/1999/xlink">
    <!-- Generator: Sketch 63.1 (92452) - https://sketch.com -->
    <title>thunder</title>
    <desc>Created with Sketch.</desc>
    <g id="lucid" stroke="none" stroke-width="1" fill="none" fill-rule="evenodd">
        <g id="thunder" fill="#FFFFFF" fill-rule="nonzero">
            <path d="M4,0 C3.5149267,0 3.09994434,0.348483308 3.015625,0.8261719 L0.0351562,13.732422 L0.0371094,13.734375 C0.0128682064,13.8208486 0.000386169169,13.9101937 -8.8817842e-16,14 C-8.8817842e-16,14.5522847 0.44771525,15 1,15 L6.5,15 L5.019531,24.800781 C5.00637391,24.8663669 4.9998308,24.9331076 5,25 C5,25.5522847 5.44771525,26 6,26 C6.37029512,25.9994249 6.70995959,25.7942735 6.882812,25.466797 L6.884766,25.466797 L13.806641,12.589844 L13.796875,12.572266 C13.915239,12.407976 14,12.217804 14,12 C14,11.448 13.552,11 13,11 L7.5,11 L10.912109,1.4101562 C10.9700735,1.28118865 11.0000295,1.14139489 11,1 C11,0.44771525 10.5522847,0 10,0 L4,0 Z" id="Path"></path>
        </g>
    </g>
</svg>