<?xml version="1.0" encoding="UTF-8"?>
<svg width="22px" height="20px" viewBox="0 0 22 20" version="1.1" xmlns="http://www.w3.org/2000/svg" xmlns:xlink="http://www.w3.org/1999/xlink">
    <!-- Generator: Sketch 63.1 (92452) - https://sketch.com -->
    <title>waves</title>
    <desc>Created with Sketch.</desc>
    <g id="lucid" stroke="none" stroke-width="1" fill="none" fill-rule="evenodd">
        <g id="waves" transform="translate(-1.000000, 0.000000)" fill="#FFFFFF" fill-rule="nonzero">
            <path d="M10,0 C7.583333,0 6.030499,1.5527008 4.8808594,2.8300781 C4.3060396,3.4687668 3.7973613,4.0577771 3.3242188,4.4414062 C2.8510761,4.8250355 2.4722222,5 2,5 C1.63936408,4.99489971 1.30391864,5.1843753 1.12211228,5.49587285 C0.940305922,5.8073704 0.940305922,6.1926296 1.12211228,6.50412715 C1.30391864,6.8156247 1.63936408,7.00510029 2,7 C3.0277778,7 3.8989238,6.549965 4.5820312,5.996094 C5.2651387,5.442223 5.8189604,4.7812332 6.3691406,4.1699219 C7.469501,2.9472992 8.416667,2 10,2 C11.177376,2 11.971073,2.7995296 11.988281,3.96875 C11.9875885,3.99022879 11.9875885,4.01172431 11.988281,4.0332031 C11.970146,5.201279 11.176675,6 10,6 C9.539104,6 9.120434,5.849226 8.742188,5.578125 C8.45210688,5.36463227 8.06963491,5.32361014 7.74087629,5.47072904 C7.41211766,5.61784794 7.18786066,5.9303802 7.1537714,6.2889386 C7.11968213,6.647497 7.28102688,6.99668963 7.576172,7.203125 C8.249924,7.686024 9.086896,8 10,8 C11.908261,8 13.428263,6.636942 13.828125,4.8496094 C15.046614,4.6711218 16.001921,4.2465872 16.617188,3.8222656 C17.377566,3.2978667 17.70303,3 18.5,3 C19.37619,3 20,3.6238095 20,4.5 C20,5.37619 19.37619,6 18.5,6 C18.246602,6 17.971592,5.93065 17.726562,5.800781 C17.4108116,5.63328328 17.0296856,5.64696865 16.7267618,5.83668155 C16.4238381,6.02639446 16.2451424,6.36331023 16.2579931,6.72050575 C16.2708439,7.07770127 16.4732885,7.40090483 16.789062,7.568359 C17.310033,7.844487 17.895398,8 18.5,8 C20.42381,8 22,6.42381 22,4.5 C22,2.5761905 20.42381,1 18.5,1 C17.09697,1 16.172043,1.7021333 15.482422,2.1777344 C14.975347,2.527441 14.464309,2.7529524 13.773438,2.8769531 C13.280701,1.2262973 11.811256,0 10,0 Z M7,10 C5.6666667,10 4.6953125,10.667969 3.9453125,11.167969 C3.1953125,11.667969 2.6666667,12 2,12 C1.63936408,11.9948997 1.30391864,12.1843753 1.12211228,12.4958728 C0.940305922,12.8073704 0.940305922,13.1926296 1.12211228,13.5041272 C1.30391864,13.8156247 1.63936408,14.0051003 2,14 C3.3333333,14 4.3046875,13.332031 5.0546875,12.832031 C5.8046875,12.332031 6.3333333,12 7,12 C7.666667,12 8.195314,12.332031 8.945312,12.832031 C9.695312,13.332031 10.666667,14 12,14 C13.333333,14 14.304687,13.332031 15.054688,12.832031 C15.804688,12.332031 16.333333,12 17,12 C17.666667,12 18.195313,12.332031 18.945312,12.832031 C19.695312,13.332031 20.666667,14 22,14 C22.3606359,14.0051003 22.6960814,13.8156247 22.8778877,13.5041272 C23.0596941,13.1926296 23.0596941,12.8073704 22.8778877,12.4958728 C22.6960814,12.1843753 22.3606359,11.9948997 22,12 C21.333333,12 20.804687,11.667969 20.054688,11.167969 C19.304688,10.667969 18.333333,10 17,10 C15.666667,10 14.695313,10.667969 13.945312,11.167969 C13.195312,11.667969 12.666667,12 12,12 C11.333333,12 10.804686,11.667969 10.054688,11.167969 C9.304688,10.667969 8.333333,10 7,10 Z M7,16 C5.6666667,16 4.6953125,16.667969 3.9453125,17.167969 C3.1953125,17.667969 2.6666667,18 2,18 C1.63936408,17.9948997 1.30391864,18.1843753 1.12211228,18.4958728 C0.940305922,18.8073704 0.940305922,19.1926296 1.12211228,19.5041272 C1.30391864,19.8156247 1.63936408,20.0051003 2,20 C3.3333333,20 4.3046875,19.332031 5.0546875,18.832031 C5.8046875,18.332031 6.3333333,18 7,18 C7.666667,18 8.195314,18.332031 8.945312,18.832031 C9.695312,19.332031 10.666667,20 12,20 C13.333333,20 14.304687,19.332031 15.054688,18.832031 C15.804688,18.332031 16.333333,18 17,18 C17.666667,18 18.195313,18.332031 18.945312,18.832031 C19.695312,19.332031 20.666667,20 22,20 C22.3606359,20.0051003 22.6960814,19.8156247 22.8778877,19.5041272 C23.0596941,19.1926296 23.0596941,18.8073704 22.8778877,18.4958728 C22.6960814,18.1843753 22.3606359,17.9948997 22,18 C21.333333,18 20.804687,17.667969 20.054688,17.167969 C19.304688,16.667969 18.333333,16 17,16 C15.666667,16 14.695313,16.667969 13.945312,17.167969 C13.195312,17.667969 12.666667,18 12,18 C11.333333,18 10.804686,17.667969 10.054688,17.167969 C9.304688,16.667969 8.333333,16 7,16 Z" id="Shape"></path>
        </g>
    </g>
</svg>