<?xml version="1.0" encoding="UTF-8"?>
<svg width="22px" height="22px" viewBox="0 0 22 22" version="1.1" xmlns="http://www.w3.org/2000/svg" xmlns:xlink="http://www.w3.org/1999/xlink">
    <!-- Generator: Sketch 63.1 (92452) - https://sketch.com -->
    <title>waves</title>
    <desc>Created with Sketch.</desc>
    <g id="lucid" stroke="none" stroke-width="1" fill="none" fill-rule="evenodd">
        <g id="waves" transform="translate(-1.000000, 0.000000)" fill="#FFFFFF" fill-rule="nonzero">
            <path d="M7,0 C5.6666667,0 4.6953125,0.6679688 3.9453125,1.1679688 C3.1953125,1.6679688 2.6666667,2 2,2 C1.63936408,1.99489971 1.30391864,2.1843753 1.12211228,2.49587285 C0.940305922,2.8073704 0.940305922,3.1926296 1.12211228,3.50412715 C1.30391864,3.8156247 1.63936408,4.00510029 2,4 C3.3333333,4 4.3046875,3.3320312 5.0546875,2.8320312 C5.8046875,2.3320312 6.3333333,2 7,2 C7.666667,2 8.195314,2.3320312 8.945312,2.8320312 C9.695312,3.3320312 10.666667,4 12,4 C13.333333,4 14.304687,3.3320312 15.054688,2.8320312 C15.804688,2.3320312 16.333333,2 17,2 C17.666667,2 18.195313,2.3320312 18.945312,2.8320312 C19.695312,3.3320312 20.666667,4 22,4 C22.3606359,4.00510029 22.6960814,3.8156247 22.8778877,3.50412715 C23.0596941,3.1926296 23.0596941,2.8073704 22.8778877,2.49587285 C22.6960814,2.1843753 22.3606359,1.99489971 22,2 C21.333333,2 20.804687,1.6679688 20.054688,1.1679688 C19.304688,0.6679688 18.333333,0 17,0 C15.666667,0 14.695313,0.6679688 13.945312,1.1679688 C13.195312,1.6679688 12.666667,2 12,2 C11.333333,2 10.804686,1.6679688 10.054688,1.1679688 C9.304688,0.6679688 8.333333,0 7,0 Z M7,6 C5.6666667,6 4.6953125,6.667969 3.9453125,7.167969 C3.1953125,7.667969 2.6666667,8 2,8 C1.63936408,7.99489971 1.30391864,8.1843753 1.12211228,8.49587285 C0.940305922,8.8073704 0.940305922,9.1926296 1.12211228,9.50412715 C1.30391864,9.8156247 1.63936408,10.0051003 2,10 C3.3333333,10 4.3046875,9.332031 5.0546875,8.832031 C5.8046875,8.332031 6.3333333,8 7,8 C7.666667,8 8.195314,8.332031 8.945312,8.832031 C9.695312,9.332031 10.666667,10 12,10 C13.333333,10 14.304687,9.332031 15.054688,8.832031 C15.804688,8.332031 16.333333,8 17,8 C17.666667,8 18.195313,8.332031 18.945312,8.832031 C19.695312,9.332031 20.666667,10 22,10 C22.3606359,10.0051003 22.6960814,9.8156247 22.8778877,9.50412715 C23.0596941,9.1926296 23.0596941,8.8073704 22.8778877,8.49587285 C22.6960814,8.1843753 22.3606359,7.99489971 22,8 C21.333333,8 20.804687,7.667969 20.054688,7.167969 C19.304688,6.667969 18.333333,6 17,6 C15.666667,6 14.695313,6.667969 13.945312,7.167969 C13.195312,7.667969 12.666667,8 12,8 C11.333333,8 10.804686,7.667969 10.054688,7.167969 C9.304688,6.667969 8.333333,6 7,6 Z M7,12 C5.6666667,12 4.6953125,12.667969 3.9453125,13.167969 C3.1953125,13.667969 2.6666667,14 2,14 C1.63936408,13.9948997 1.30391864,14.1843753 1.12211228,14.4958728 C0.940305922,14.8073704 0.940305922,15.1926296 1.12211228,15.5041272 C1.30391864,15.8156247 1.63936408,16.0051003 2,16 C3.3333333,16 4.3046875,15.332031 5.0546875,14.832031 C5.8046875,14.332031 6.3333333,14 7,14 C7.666667,14 8.195314,14.332031 8.945312,14.832031 C9.695312,15.332031 10.666667,16 12,16 C13.333333,16 14.304687,15.332031 15.054688,14.832031 C15.804688,14.332031 16.333333,14 17,14 C17.666667,14 18.195313,14.332031 18.945312,14.832031 C19.695312,15.332031 20.666667,16 22,16 C22.3606359,16.0051003 22.6960814,15.8156247 22.8778877,15.5041272 C23.0596941,15.1926296 23.0596941,14.8073704 22.8778877,14.4958728 C22.6960814,14.1843753 22.3606359,13.9948997 22,14 C21.333333,14 20.804687,13.667969 20.054688,13.167969 C19.304688,12.667969 18.333333,12 17,12 C15.666667,12 14.695313,12.667969 13.945312,13.167969 C13.195312,13.667969 12.666667,14 12,14 C11.333333,14 10.804686,13.667969 10.054688,13.167969 C9.304688,12.667969 8.333333,12 7,12 Z M7,18 C5.6666667,18 4.6953125,18.667969 3.9453125,19.167969 C3.1953125,19.667969 2.6666667,20 2,20 C1.63936408,19.9948997 1.30391864,20.1843753 1.12211228,20.4958728 C0.940305922,20.8073704 0.940305922,21.1926296 1.12211228,21.5041272 C1.30391864,21.8156247 1.63936408,22.0051003 2,22 C3.3333333,22 4.3046875,21.332031 5.0546875,20.832031 C5.8046875,20.332031 6.3333333,20 7,20 C7.666667,20 8.195314,20.332031 8.945312,20.832031 C9.695312,21.332031 10.666667,22 12,22 C13.333333,22 14.304687,21.332031 15.054688,20.832031 C15.804688,20.332031 16.333333,20 17,20 C17.666667,20 18.195313,20.332031 18.945312,20.832031 C19.695312,21.332031 20.666667,22 22,22 C22.3606359,22.0051003 22.6960814,21.8156247 22.8778877,21.5041272 C23.0596941,21.1926296 23.0596941,20.8073704 22.8778877,20.4958728 C22.6960814,20.1843753 22.3606359,19.9948997 22,20 C21.333333,20 20.804687,19.667969 20.054688,19.167969 C19.304688,18.667969 18.333333,18 17,18 C15.666667,18 14.695313,18.667969 13.945312,19.167969 C13.195312,19.667969 12.666667,20 12,20 C11.333333,20 10.804686,19.667969 10.054688,19.167969 C9.304688,18.667969 8.333333,18 7,18 Z" id="Shape"></path>
        </g>
    </g>
</svg>