<?xml version="1.0" encoding="UTF-8"?>
<svg width="24px" height="24px" viewBox="0 0 24 24" version="1.1" xmlns="http://www.w3.org/2000/svg" xmlns:xlink="http://www.w3.org/1999/xlink">
    <!-- Generator: Sketch 63.1 (92452) - https://sketch.com -->
    <title>wind</title>
    <desc>Created with Sketch.</desc>
    <g id="lucid" stroke="none" stroke-width="1" fill="none" fill-rule="evenodd">
        <g id="wind" transform="translate(-1.000000, 0.000000)" fill="#FFFFFF" fill-rule="nonzero">
            <path d="M7.5,0 C6.2430911,0 5.0988877,0.5244685 4.2851562,1.3574219 C4.01823262,1.60931819 3.91072589,1.98718205 4.00507093,2.34186353 C4.09941598,2.69654502 4.38045404,2.97105621 4.73725415,3.05704241 C5.09405426,3.1430286 5.46928808,3.0266741 5.7148438,2.7539062 C6.1711124,2.2868596 6.7949089,2 7.5,2 C8.892562,2 10,3.107438 10,4.5 C10,5.892562 8.892562,7 7.5,7 L2,7 C1.63936408,6.99489971 1.30391864,7.1843753 1.12211228,7.49587285 C0.940305922,7.8073704 0.940305922,8.1926296 1.12211228,8.50412715 C1.30391864,8.8156247 1.63936408,9.00510029 2,9 L7.5,9 C9.973438,9 12,6.973438 12,4.5 C12,2.026562 9.973438,0 7.5,0 Z M19.5,2 C17.882843,2 16.415963,2.7053811 15.410156,3.8222656 C15.1623861,4.08643878 15.0768053,4.46392701 15.1864243,4.80912418 C15.2960432,5.15432136 15.5837296,5.41327692 15.938516,5.48610559 C16.2933024,5.55893426 16.6597395,5.43425373 16.896484,5.1601562 C17.538678,4.4470409 18.461157,4 19.5,4 C21.444423,4 23,5.5555768 23,7.5 C23,9.444423 21.444423,11 19.5,11 L2,11 C1.63936408,10.9948997 1.30391864,11.1843753 1.12211228,11.4958728 C0.940305922,11.8073704 0.940305922,12.1926296 1.12211228,12.5041272 C1.30391864,12.8156247 1.63936408,13.0051003 2,13.0001004 L19.5,13.0001004 C22.525577,13.0001004 25,10.525577 25,7.5 C25,4.4744232 22.525577,2 19.5,2 Z M2,15 C1.63936408,14.9948997 1.30391864,15.1843753 1.12211228,15.4958728 C0.940305922,15.8073704 0.940305922,16.1926296 1.12211228,16.5041272 C1.30391864,16.8156247 1.63936408,17.0051003 2,17 L16.5,17 C17.892562,17 19,18.107438 19,19.5 C19,20.892562 17.892562,22 16.5,22 C15.794909,22 15.171112,21.71314 14.714844,21.246094 C14.4692882,20.9733264 14.0940546,20.8569722 13.7372547,20.9429583 C13.3804549,21.0289445 13.0994169,21.3034554 13.0050717,21.6581366 C12.9107266,22.0128179 13.0182329,22.3906815 13.285156,22.642578 C14.098888,23.475531 15.243091,24 16.5,24 C18.973438,24 21,21.973438 21,19.5 C21,17.026562 18.973438,15 16.5,15 L2,15 Z" id="Shape"></path>
        </g>
    </g>
</svg>